<mxfile host="app.diagrams.net" modified="2023-08-29T15:31:47.847Z" agent="Mozilla/5.0 (Windows NT 10.0; Win64; x64) AppleWebKit/537.36 (KHTML, like Gecko) Chrome/116.0.0.0 Safari/537.36" etag="p64wzv6bsQZXhaplirJ1" version="21.6.9" type="device">
  <diagram name="PÃ¡gina-1" id="C3c1A9Y1YgFOMcrzRLxe">
    <mxGraphModel dx="1434" dy="758" grid="1" gridSize="10" guides="1" tooltips="1" connect="1" arrows="1" fold="1" page="1" pageScale="1" pageWidth="827" pageHeight="1169" math="0" shadow="0">
      <root>
        <mxCell id="0" />
        <mxCell id="1" parent="0" />
        <mxCell id="YupMifnpsSDXsZnkTp_7-1" value="Order a car Package Diagram" style="text;strokeColor=none;fillColor=none;html=1;fontSize=24;fontStyle=1;verticalAlign=middle;align=center;" vertex="1" parent="1">
          <mxGeometry x="870" y="30" width="100" height="40" as="geometry" />
        </mxCell>
        <mxCell id="YupMifnpsSDXsZnkTp_7-2" value="Project: Uber ride sharing system" style="text;align=center;fontStyle=1;verticalAlign=middle;spacingLeft=3;spacingRight=3;strokeColor=none;rotatable=0;points=[[0,0.5],[1,0.5]];portConstraint=eastwest;html=1;" vertex="1" parent="1">
          <mxGeometry x="820" y="60" width="80" height="26" as="geometry" />
        </mxCell>
        <mxCell id="YupMifnpsSDXsZnkTp_7-3" value="&amp;nbsp; &amp;nbsp;User module" style="shape=folder;fontStyle=1;tabWidth=110;tabHeight=30;tabPosition=left;html=1;boundedLbl=1;labelInHeader=1;container=1;collapsible=0;whiteSpace=wrap;align=left;" vertex="1" parent="1">
          <mxGeometry x="120" y="160" width="200" height="100" as="geometry" />
        </mxCell>
        <mxCell id="YupMifnpsSDXsZnkTp_7-4" value="" style="html=1;strokeColor=none;resizeWidth=1;resizeHeight=1;fillColor=none;part=1;connectable=0;allowArrows=0;deletable=0;whiteSpace=wrap;" vertex="1" parent="YupMifnpsSDXsZnkTp_7-3">
          <mxGeometry width="266.66666666666663" height="70" relative="1" as="geometry">
            <mxPoint y="30" as="offset" />
          </mxGeometry>
        </mxCell>
        <mxCell id="YupMifnpsSDXsZnkTp_7-5" value="&amp;nbsp; &amp;nbsp;Trip module" style="shape=folder;fontStyle=1;tabWidth=110;tabHeight=30;tabPosition=left;html=1;boundedLbl=1;labelInHeader=1;container=1;collapsible=0;whiteSpace=wrap;align=left;" vertex="1" parent="1">
          <mxGeometry x="560" y="160" width="200" height="100" as="geometry" />
        </mxCell>
        <mxCell id="YupMifnpsSDXsZnkTp_7-6" value="" style="html=1;strokeColor=none;resizeWidth=1;resizeHeight=1;fillColor=none;part=1;connectable=0;allowArrows=0;deletable=0;whiteSpace=wrap;" vertex="1" parent="YupMifnpsSDXsZnkTp_7-5">
          <mxGeometry width="266.66666666666663" height="70" relative="1" as="geometry">
            <mxPoint y="30" as="offset" />
          </mxGeometry>
        </mxCell>
        <mxCell id="YupMifnpsSDXsZnkTp_7-7" value="&amp;nbsp; &amp;nbsp;Auth" style="shape=folder;fontStyle=1;tabWidth=110;tabHeight=30;tabPosition=left;html=1;boundedLbl=1;labelInHeader=1;container=1;collapsible=0;whiteSpace=wrap;align=left;" vertex="1" parent="1">
          <mxGeometry x="200" y="360" width="200" height="80" as="geometry" />
        </mxCell>
        <mxCell id="YupMifnpsSDXsZnkTp_7-8" value="" style="html=1;strokeColor=none;resizeWidth=1;resizeHeight=1;fillColor=none;part=1;connectable=0;allowArrows=0;deletable=0;whiteSpace=wrap;" vertex="1" parent="YupMifnpsSDXsZnkTp_7-7">
          <mxGeometry width="266.67" height="40" relative="1" as="geometry">
            <mxPoint y="30" as="offset" />
          </mxGeometry>
        </mxCell>
        <mxCell id="YupMifnpsSDXsZnkTp_7-9" value="&amp;nbsp; &amp;nbsp;SMS gate" style="shape=folder;fontStyle=1;tabWidth=110;tabHeight=30;tabPosition=left;html=1;boundedLbl=1;labelInHeader=1;container=1;collapsible=0;whiteSpace=wrap;align=left;" vertex="1" parent="1">
          <mxGeometry x="603.3299999999999" y="360" width="200" height="80" as="geometry" />
        </mxCell>
        <mxCell id="YupMifnpsSDXsZnkTp_7-10" value="" style="html=1;strokeColor=none;resizeWidth=1;resizeHeight=1;fillColor=none;part=1;connectable=0;allowArrows=0;deletable=0;whiteSpace=wrap;" vertex="1" parent="YupMifnpsSDXsZnkTp_7-9">
          <mxGeometry width="266.67" height="40" relative="1" as="geometry">
            <mxPoint y="30" as="offset" />
          </mxGeometry>
        </mxCell>
        <mxCell id="YupMifnpsSDXsZnkTp_7-11" value="&amp;nbsp; &amp;nbsp;Search" style="shape=folder;fontStyle=1;tabWidth=110;tabHeight=30;tabPosition=left;html=1;boundedLbl=1;labelInHeader=1;container=1;collapsible=0;whiteSpace=wrap;align=left;" vertex="1" parent="1">
          <mxGeometry x="603.3299999999999" y="520" width="200" height="80" as="geometry" />
        </mxCell>
        <mxCell id="YupMifnpsSDXsZnkTp_7-12" value="" style="html=1;strokeColor=none;resizeWidth=1;resizeHeight=1;fillColor=none;part=1;connectable=0;allowArrows=0;deletable=0;whiteSpace=wrap;" vertex="1" parent="YupMifnpsSDXsZnkTp_7-11">
          <mxGeometry width="266.67" height="40" relative="1" as="geometry">
            <mxPoint y="30" as="offset" />
          </mxGeometry>
        </mxCell>
        <mxCell id="YupMifnpsSDXsZnkTp_7-13" value="&amp;nbsp; &amp;nbsp;Book" style="shape=folder;fontStyle=1;tabWidth=110;tabHeight=30;tabPosition=left;html=1;boundedLbl=1;labelInHeader=1;container=1;collapsible=0;whiteSpace=wrap;align=left;" vertex="1" parent="1">
          <mxGeometry x="603.3299999999999" y="680" width="200" height="80" as="geometry" />
        </mxCell>
        <mxCell id="YupMifnpsSDXsZnkTp_7-14" value="" style="html=1;strokeColor=none;resizeWidth=1;resizeHeight=1;fillColor=none;part=1;connectable=0;allowArrows=0;deletable=0;whiteSpace=wrap;" vertex="1" parent="YupMifnpsSDXsZnkTp_7-13">
          <mxGeometry width="266.67" height="40" relative="1" as="geometry">
            <mxPoint y="30" as="offset" />
          </mxGeometry>
        </mxCell>
        <mxCell id="YupMifnpsSDXsZnkTp_7-15" value="&amp;nbsp; &amp;nbsp;Profile" style="shape=folder;fontStyle=1;tabWidth=110;tabHeight=30;tabPosition=left;html=1;boundedLbl=1;labelInHeader=1;container=1;collapsible=0;whiteSpace=wrap;align=left;" vertex="1" parent="1">
          <mxGeometry x="200" y="520" width="200" height="80" as="geometry" />
        </mxCell>
        <mxCell id="YupMifnpsSDXsZnkTp_7-16" value="" style="html=1;strokeColor=none;resizeWidth=1;resizeHeight=1;fillColor=none;part=1;connectable=0;allowArrows=0;deletable=0;whiteSpace=wrap;" vertex="1" parent="YupMifnpsSDXsZnkTp_7-15">
          <mxGeometry width="266.67" height="40" relative="1" as="geometry">
            <mxPoint y="30" as="offset" />
          </mxGeometry>
        </mxCell>
        <mxCell id="YupMifnpsSDXsZnkTp_7-17" value="&amp;nbsp; &amp;nbsp;Payment module" style="shape=folder;fontStyle=1;tabWidth=110;tabHeight=30;tabPosition=left;html=1;boundedLbl=1;labelInHeader=1;container=1;collapsible=0;whiteSpace=wrap;align=left;" vertex="1" parent="1">
          <mxGeometry x="200" y="680" width="200" height="80" as="geometry" />
        </mxCell>
        <mxCell id="YupMifnpsSDXsZnkTp_7-18" value="" style="html=1;strokeColor=none;resizeWidth=1;resizeHeight=1;fillColor=none;part=1;connectable=0;allowArrows=0;deletable=0;whiteSpace=wrap;" vertex="1" parent="YupMifnpsSDXsZnkTp_7-17">
          <mxGeometry width="266.67" height="40" relative="1" as="geometry">
            <mxPoint y="30" as="offset" />
          </mxGeometry>
        </mxCell>
        <mxCell id="YupMifnpsSDXsZnkTp_7-19" value="&amp;nbsp; &amp;nbsp;Single" style="shape=folder;fontStyle=1;tabWidth=80;tabHeight=30;tabPosition=left;html=1;boundedLbl=1;labelInHeader=1;container=1;collapsible=0;whiteSpace=wrap;align=left;" vertex="1" parent="1">
          <mxGeometry x="261" y="810" width="140" height="80" as="geometry" />
        </mxCell>
        <mxCell id="YupMifnpsSDXsZnkTp_7-20" value="" style="html=1;strokeColor=none;resizeWidth=1;resizeHeight=1;fillColor=none;part=1;connectable=0;allowArrows=0;deletable=0;whiteSpace=wrap;" vertex="1" parent="YupMifnpsSDXsZnkTp_7-19">
          <mxGeometry width="133" height="40" relative="1" as="geometry">
            <mxPoint y="30" as="offset" />
          </mxGeometry>
        </mxCell>
        <mxCell id="YupMifnpsSDXsZnkTp_7-21" value="&amp;nbsp; &amp;nbsp;Shared" style="shape=folder;fontStyle=1;tabWidth=80;tabHeight=30;tabPosition=left;html=1;boundedLbl=1;labelInHeader=1;container=1;collapsible=0;whiteSpace=wrap;align=left;" vertex="1" parent="1">
          <mxGeometry x="261" y="950" width="140" height="80" as="geometry" />
        </mxCell>
        <mxCell id="YupMifnpsSDXsZnkTp_7-22" value="" style="html=1;strokeColor=none;resizeWidth=1;resizeHeight=1;fillColor=none;part=1;connectable=0;allowArrows=0;deletable=0;whiteSpace=wrap;" vertex="1" parent="YupMifnpsSDXsZnkTp_7-21">
          <mxGeometry width="133" height="40" relative="1" as="geometry">
            <mxPoint y="30" as="offset" />
          </mxGeometry>
        </mxCell>
        <mxCell id="YupMifnpsSDXsZnkTp_7-23" value="" style="endArrow=block;html=1;rounded=0;endFill=1;exitX=-0.005;exitY=0.59;exitDx=0;exitDy=0;exitPerimeter=0;" edge="1" parent="1" source="YupMifnpsSDXsZnkTp_7-5">
          <mxGeometry width="50" height="50" relative="1" as="geometry">
            <mxPoint x="430" y="220" as="sourcePoint" />
            <mxPoint x="320" y="220" as="targetPoint" />
          </mxGeometry>
        </mxCell>
        <mxCell id="YupMifnpsSDXsZnkTp_7-24" value="&lt;font style=&quot;font-size: 12px;&quot;&gt;&amp;lt;&amp;lt;access&amp;gt;&amp;gt;&lt;/font&gt;" style="edgeLabel;html=1;align=center;verticalAlign=middle;resizable=0;points=[];" vertex="1" connectable="0" parent="YupMifnpsSDXsZnkTp_7-23">
          <mxGeometry x="-0.021" y="-1" relative="1" as="geometry">
            <mxPoint as="offset" />
          </mxGeometry>
        </mxCell>
        <mxCell id="YupMifnpsSDXsZnkTp_7-25" value="" style="endArrow=none;html=1;rounded=0;" edge="1" parent="1">
          <mxGeometry width="50" height="50" relative="1" as="geometry">
            <mxPoint x="140" y="730" as="sourcePoint" />
            <mxPoint x="140" y="260" as="targetPoint" />
          </mxGeometry>
        </mxCell>
        <mxCell id="YupMifnpsSDXsZnkTp_7-26" value="&lt;font style=&quot;font-size: 12px;&quot;&gt;&amp;lt;&amp;lt;use&amp;gt;&amp;gt;&lt;/font&gt;" style="edgeLabel;html=1;align=center;verticalAlign=middle;resizable=0;points=[];" vertex="1" connectable="0" parent="YupMifnpsSDXsZnkTp_7-25">
          <mxGeometry y="-1" relative="1" as="geometry">
            <mxPoint y="-175" as="offset" />
          </mxGeometry>
        </mxCell>
        <mxCell id="YupMifnpsSDXsZnkTp_7-27" value="" style="endArrow=block;html=1;rounded=0;endFill=1;" edge="1" parent="1">
          <mxGeometry width="50" height="50" relative="1" as="geometry">
            <mxPoint x="140" y="400" as="sourcePoint" />
            <mxPoint x="199" y="400" as="targetPoint" />
          </mxGeometry>
        </mxCell>
        <mxCell id="YupMifnpsSDXsZnkTp_7-29" value="" style="endArrow=block;html=1;rounded=0;endFill=1;" edge="1" parent="1">
          <mxGeometry width="50" height="50" relative="1" as="geometry">
            <mxPoint x="140" y="559.5" as="sourcePoint" />
            <mxPoint x="199" y="559.5" as="targetPoint" />
          </mxGeometry>
        </mxCell>
        <mxCell id="YupMifnpsSDXsZnkTp_7-30" value="" style="endArrow=block;html=1;rounded=0;endFill=1;" edge="1" parent="1">
          <mxGeometry width="50" height="50" relative="1" as="geometry">
            <mxPoint x="141" y="729.5" as="sourcePoint" />
            <mxPoint x="200" y="729.5" as="targetPoint" />
          </mxGeometry>
        </mxCell>
        <mxCell id="YupMifnpsSDXsZnkTp_7-31" value="" style="endArrow=none;html=1;rounded=0;" edge="1" parent="1">
          <mxGeometry width="50" height="50" relative="1" as="geometry">
            <mxPoint x="670" y="300" as="sourcePoint" />
            <mxPoint x="670" y="260" as="targetPoint" />
          </mxGeometry>
        </mxCell>
        <mxCell id="YupMifnpsSDXsZnkTp_7-32" value="" style="endArrow=none;html=1;rounded=0;" edge="1" parent="1">
          <mxGeometry width="50" height="50" relative="1" as="geometry">
            <mxPoint x="560" y="300" as="sourcePoint" />
            <mxPoint x="693.33" y="300" as="targetPoint" />
          </mxGeometry>
        </mxCell>
        <mxCell id="YupMifnpsSDXsZnkTp_7-33" value="" style="endArrow=none;html=1;rounded=0;" edge="1" parent="1">
          <mxGeometry width="50" height="50" relative="1" as="geometry">
            <mxPoint x="560" y="720" as="sourcePoint" />
            <mxPoint x="560" y="300" as="targetPoint" />
          </mxGeometry>
        </mxCell>
        <mxCell id="YupMifnpsSDXsZnkTp_7-34" value="" style="endArrow=block;html=1;rounded=0;endFill=1;" edge="1" parent="1">
          <mxGeometry width="50" height="50" relative="1" as="geometry">
            <mxPoint x="693" y="300" as="sourcePoint" />
            <mxPoint x="693" y="360" as="targetPoint" />
          </mxGeometry>
        </mxCell>
        <mxCell id="YupMifnpsSDXsZnkTp_7-35" value="&lt;font style=&quot;font-size: 12px;&quot;&gt;&amp;lt;&amp;lt;import&amp;gt;&amp;gt;&lt;/font&gt;" style="edgeLabel;html=1;align=center;verticalAlign=middle;resizable=0;points=[];" vertex="1" connectable="0" parent="YupMifnpsSDXsZnkTp_7-34">
          <mxGeometry x="-0.0667" y="1" relative="1" as="geometry">
            <mxPoint as="offset" />
          </mxGeometry>
        </mxCell>
        <mxCell id="YupMifnpsSDXsZnkTp_7-36" value="&lt;font style=&quot;font-size: 12px;&quot;&gt;&amp;lt;&amp;lt;use&amp;gt;&amp;gt;&lt;/font&gt;" style="edgeLabel;html=1;align=center;verticalAlign=middle;resizable=0;points=[];" vertex="1" connectable="0" parent="1">
          <mxGeometry x="560" y="338" as="geometry">
            <mxPoint x="6" y="2" as="offset" />
          </mxGeometry>
        </mxCell>
        <mxCell id="YupMifnpsSDXsZnkTp_7-37" value="" style="endArrow=block;html=1;rounded=0;endFill=1;" edge="1" parent="1">
          <mxGeometry width="50" height="50" relative="1" as="geometry">
            <mxPoint x="560" y="410" as="sourcePoint" />
            <mxPoint x="600" y="410" as="targetPoint" />
          </mxGeometry>
        </mxCell>
        <mxCell id="YupMifnpsSDXsZnkTp_7-38" value="" style="endArrow=block;html=1;rounded=0;endFill=1;" edge="1" parent="1">
          <mxGeometry width="50" height="50" relative="1" as="geometry">
            <mxPoint x="560" y="559.5" as="sourcePoint" />
            <mxPoint x="600" y="559.5" as="targetPoint" />
          </mxGeometry>
        </mxCell>
        <mxCell id="YupMifnpsSDXsZnkTp_7-39" value="" style="endArrow=block;html=1;rounded=0;endFill=1;" edge="1" parent="1">
          <mxGeometry width="50" height="50" relative="1" as="geometry">
            <mxPoint x="560" y="719.5" as="sourcePoint" />
            <mxPoint x="600" y="719.5" as="targetPoint" />
          </mxGeometry>
        </mxCell>
        <mxCell id="YupMifnpsSDXsZnkTp_7-40" value="" style="endArrow=none;html=1;rounded=0;" edge="1" parent="1">
          <mxGeometry width="50" height="50" relative="1" as="geometry">
            <mxPoint x="240" y="1000" as="sourcePoint" />
            <mxPoint x="240" y="760" as="targetPoint" />
          </mxGeometry>
        </mxCell>
        <mxCell id="YupMifnpsSDXsZnkTp_7-41" value="&lt;font style=&quot;font-size: 12px;&quot;&gt;&amp;lt;&amp;lt;use&amp;gt;&amp;gt;&lt;/font&gt;" style="edgeLabel;html=1;align=center;verticalAlign=middle;resizable=0;points=[];" vertex="1" connectable="0" parent="YupMifnpsSDXsZnkTp_7-40">
          <mxGeometry x="0.5333" y="1" relative="1" as="geometry">
            <mxPoint y="-26" as="offset" />
          </mxGeometry>
        </mxCell>
        <mxCell id="YupMifnpsSDXsZnkTp_7-42" value="" style="endArrow=block;html=1;rounded=0;endFill=1;" edge="1" parent="1">
          <mxGeometry width="50" height="50" relative="1" as="geometry">
            <mxPoint x="240" y="860" as="sourcePoint" />
            <mxPoint x="260" y="860" as="targetPoint" />
          </mxGeometry>
        </mxCell>
        <mxCell id="YupMifnpsSDXsZnkTp_7-43" value="" style="endArrow=block;html=1;rounded=0;endFill=1;" edge="1" parent="1">
          <mxGeometry width="50" height="50" relative="1" as="geometry">
            <mxPoint x="241" y="1000" as="sourcePoint" />
            <mxPoint x="261" y="1000" as="targetPoint" />
          </mxGeometry>
        </mxCell>
      </root>
    </mxGraphModel>
  </diagram>
</mxfile>
